# xmcd
#
# Track frame offsets:
#	150
#	10085
#	22250
#	33090
#	43232
#	53222
#	63932
#	73452
#	82772
#	90922
#	102767
#	112710
#	124705
#	135105
#	143587
#	153322
#	164167
#	174137
#	184327
#	194320
#	203302
#	212160
#	224775
#	234035
#	246200
#	255595
#
# Disc length: 3544 seconds
#
# Revision: 0
# Processed by: cddbd v1.5.1PL2 Copyright (c) Steve Scherf et al.
# Submitted via: dBpowerAMP V4.0
#
DISCID=580dd61a
DTITLE=Fats Domino - Fats Domino - The Originals - Vol.  9
DYEAR=1994
DGENRE=R&B
TTITLE0=I'm Walkin'
TTITLE1=I'm In The Mood For Love
TTITLE2=You Can Pack Your Suitcase
TTITLE3=How Can I Be Happy
TTITLE4=One Of These Days
TTITLE5=So Glad
TTITLE6=Oh Wee
TTITLE7=Sailor Boy
TTITLE8=Lazy Woman
TTITLE9=My Love For Her
TTITLE10=What's Wrong
TTITLE11=Little Mama
TTITLE12=I Guess I'll Be On My Way
TTITLE13=Goin' Back Home
TTITLE14=I Lived My Live
TTITLE15=Telling Lies
TTITLE16=When I See You
TTITLE17=Oh Ba-A-Bye
TTITLE18=Don't You Know I Love You
TTITLE19=Yes My Darling
TTITLE20=I Can't Go On This Way (Undubbed Version)
TTITLE21=Bo Weevil (Extended Version)
TTITLE22=If You Need Me (Version 1)
TTITLE23=My Heart Is In Your Hands (Version 2)
TTITLE24=You Left Me (Alternate Take)
TTITLE25=Let The Four Winds Blow (Extended Version)
EXTD=R&B
EXTT0=
EXTT1=
EXTT2=
EXTT3=
EXTT4=
EXTT5=
EXTT6=
EXTT7=
EXTT8=
EXTT9=
EXTT10=
EXTT11=
EXTT12=
EXTT13=
EXTT14=
EXTT15=
EXTT16=
EXTT17=
EXTT18=
EXTT19=
EXTT20=
EXTT21=
EXTT22=
EXTT23=
EXTT24=
EXTT25=
PLAYORDER=
